HIERARCHY
ROOT joint_Root
{
	OFFSET 0.0 0.0 0.0
	CHANNELS 6 Xposition Yposition Zposition Zrotation Xrotation Yrotation 
	JOINT Hips
	{
		OFFSET 4.5925 91.4895 -427.239
		CHANNELS 6 Xposition Yposition Zposition Zrotation Xrotation Yrotation 
		JOINT Spine
		{
			OFFSET 15.7357 0.0 0.0
			CHANNELS 6 Xposition Yposition Zposition Zrotation Xrotation Yrotation 
			JOINT Chest
			{
				OFFSET 8.98455 -0.406207 0.0
				CHANNELS 6 Xposition Yposition Zposition Zrotation Xrotation Yrotation 
				JOINT Neck
				{
					OFFSET 16.3773 0.0 0.0
					CHANNELS 6 Xposition Yposition Zposition Zrotation Xrotation Yrotation 
					JOINT Head
					{
						OFFSET 6.45672 0.0 0.0
						CHANNELS 6 Xposition Yposition Zposition Zrotation Xrotation Yrotation 
						End Site
						{
							OFFSET 0.0 0.0 0.0
						}
					}
				}
				JOINT Shoulder_L
				{
					OFFSET 12.9942 -0.242716 4.98039
					CHANNELS 6 Xposition Yposition Zposition Zrotation Xrotation Yrotation 
					JOINT UpperArm_L
					{
						OFFSET 5.34809 0.0 0.0
						CHANNELS 6 Xposition Yposition Zposition Zrotation Xrotation Yrotation 
						JOINT LowerArm_L
						{
							OFFSET 24.3286 1.87007e-05 0.0
							CHANNELS 6 Xposition Yposition Zposition Zrotation Xrotation Yrotation 
							JOINT Hand_L
							{
								OFFSET 22.2916 0.0 0.0
								CHANNELS 6 Xposition Yposition Zposition Zrotation Xrotation Yrotation 
								End Site
								{
									OFFSET 0.0 0.0 0.0
								}
							}
						}
					}
				}
				JOINT Shoulder_R
				{
					OFFSET 12.9945 -0.242716 -4.98039
					CHANNELS 6 Xposition Yposition Zposition Zrotation Xrotation Yrotation 
					JOINT UpperArm_R
					{
						OFFSET -5.34813 0.0 0.0
						CHANNELS 6 Xposition Yposition Zposition Zrotation Xrotation Yrotation 
						JOINT LowerArm_R
						{
							OFFSET -24.3289 0.000322201 0.0
							CHANNELS 6 Xposition Yposition Zposition Zrotation Xrotation Yrotation 
							JOINT Hand_R
							{
								OFFSET -22.2915 -0.000108084 0.0
								CHANNELS 6 Xposition Yposition Zposition Zrotation Xrotation Yrotation 
								End Site
								{
									OFFSET 0.0 0.0 0.0
								}
							}
						}
					}
				}
			}
		}
		JOINT UpperLeg_L
		{
			OFFSET -2.19248 -6.46944 0.0
			CHANNELS 6 Xposition Yposition Zposition Zrotation Xrotation Yrotation 
			JOINT LowerLeg_L
			{
				OFFSET 39.0811 0.0 -1.23785e-05
				CHANNELS 6 Xposition Yposition Zposition Zrotation Xrotation Yrotation 
				JOINT Foot_L
				{
					OFFSET 40.9854 0.0 -1.26872e-05
					CHANNELS 6 Xposition Yposition Zposition Zrotation Xrotation Yrotation 
					JOINT Toes_L
					{
						OFFSET 11.7543 0.0 0.0
						CHANNELS 6 Xposition Yposition Zposition Zrotation Xrotation Yrotation 
						End Site
						{
							OFFSET 0.0 0.0 0.0
						}
					}
				}
			}
		}
		JOINT UpperLeg_R
		{
			OFFSET -2.19251 6.46944 0.0
			CHANNELS 6 Xposition Yposition Zposition Zrotation Xrotation Yrotation 
			JOINT LowerLeg_R
			{
				OFFSET -39.0811 -0.00228153 -0.0401928
				CHANNELS 6 Xposition Yposition Zposition Zrotation Xrotation Yrotation 
				JOINT Foot_R
				{
					OFFSET -40.9854 0.0 0.0
					CHANNELS 6 Xposition Yposition Zposition Zrotation Xrotation Yrotation 
					JOINT Toes_R
					{
						OFFSET -11.7543 0.0 0.0
						CHANNELS 6 Xposition Yposition Zposition Zrotation Xrotation Yrotation 
						End Site
						{
							OFFSET 0.0 0.0 0.0
						}
					}
				}
			}
		}
	}
}
MOTION
Frames:	4
Frame Time:	0.0333333
0.000000 0.000000 0.000000 0.000000 0.000000 -0.000000 -2.306200 90.600300 -3.600330 89.105100 -0.828224 13.466700 15.735700 0.000005 -0.000001 89.243900 76.040300 -88.976900 8.984550 -0.406207 -0.000000 20.152000 -0.331373 0.594560 16.377300 -0.000001 -0.000001 11.234500 -4.455380 -0.136382 6.456720 -0.000001 -0.000000 -7.906020 -4.548980 1.953450 12.994200 -0.242716 4.980390 -90.450400 1.750570 -75.568900 5.348090 -0.000007 -0.000001 -71.194200 -17.432400 -76.697800 24.328600 0.000019 0.000005 34.933900 -7.577160 -100.691000 22.291600 -0.000001 0.000005 18.429000 5.166950 3.534730 12.994500 -0.242716 -4.980390 88.871800 9.997240 -83.527900 -5.348130 -0.000001 -0.000004 -52.626200 33.656600 -26.451700 -24.328900 0.000322 -0.000009 3.003870 6.471320 -24.974300 -22.291500 -0.000108 -0.000004 19.809800 5.423510 -3.717480 -2.192480 -6.469440 -0.000000 -172.047000 -13.068100 -0.612533 39.081100 -0.000007 -0.000012 -0.189154 0.293288 32.820100 40.985400 -0.000006 -0.000013 -1.029980 5.656270 -68.033600 11.754300 -0.000000 0.000003 -0.000174 -0.001648 -16.639900 -2.192510 6.469440 -0.000001 173.507000 24.401400 -178.164000 -39.081100 -0.002282 -0.040193 -0.210358 0.341030 32.067400 -40.985400 0.000008 0.000006 4.842940 14.206200 -69.832300 -11.754300 -0.000006 -0.000006 -0.002748 -0.037715 -18.106800
0.000000 0.000000 0.000000 0.000000 0.000000 -0.000000 -2.340280 90.595300 -3.574880 89.098300 -0.855007 13.492900 15.735700 0.000005 -0.000001 89.236500 76.018100 -88.978200 8.984550 -0.406207 -0.000000 20.196300 -0.336280 0.578134 16.377300 -0.000001 -0.000001 11.240000 -4.467600 -0.161038 6.456720 -0.000001 -0.000000 -7.812580 -4.536710 1.924420 12.994200 -0.242716 4.980390 -90.460500 1.787200 -75.548800 5.348090 -0.000007 -0.000001 -71.227500 -17.467500 -76.782500 24.328600 0.000019 0.000005 34.907700 -7.585830 -100.713000 22.291600 -0.000001 0.000005 18.480400 5.168030 3.508360 12.994500 -0.242716 -4.980390 88.864200 10.016100 -83.496700 -5.348130 -0.000001 -0.000004 -52.549300 33.630100 -26.533900 -24.328900 0.000322 -0.000009 3.009270 6.473380 -25.006800 -22.291500 -0.000108 -0.000004 19.863100 5.422800 -3.693610 -2.192480 -6.469440 -0.000000 -172.003000 -13.060100 -0.566191 39.081100 -0.000007 -0.000012 -0.189086 0.293041 32.832600 40.985400 -0.000006 -0.000013 -1.066570 5.631230 -68.056800 11.754300 -0.000000 0.000003 -0.000175 -0.001652 -16.640100 -2.192510 6.469440 -0.000001 173.522000 24.401600 -178.123000 -39.081100 -0.002282 -0.040193 -0.209059 0.338775 32.081300 -40.985400 0.000008 0.000006 4.875300 14.218300 -69.868300 -11.754300 -0.000006 -0.000006 -0.002607 -0.036071 -18.039900
0.000000 0.000000 0.000000 0.000000 0.000000 -0.000000 -2.375360 90.592900 -3.564800 89.103500 -0.872892 13.450100 15.735700 0.000005 -0.000001 89.239500 76.019400 -88.988400 8.984550 -0.406207 -0.000000 20.193800 -0.335574 0.563669 16.377300 -0.000001 -0.000001 11.234200 -4.474220 -0.186102 6.456720 -0.000001 -0.000000 -7.712210 -4.521570 1.886330 12.994200 -0.242716 4.980390 -90.456200 1.772710 -75.567500 5.348090 -0.000007 -0.000001 -71.319900 -17.527400 -76.809600 24.328600 0.000019 0.000005 35.101100 -7.664480 -100.745000 22.291600 -0.000001 0.000005 18.458500 5.167500 3.521390 12.994500 -0.242716 -4.980390 88.860800 9.996100 -83.464500 -5.348130 -0.000001 -0.000004 -52.525500 33.589900 -26.599700 -24.328900 0.000322 -0.000009 3.021950 6.495290 -25.025400 -22.291500 -0.000108 -0.000004 19.870000 5.423850 -3.729320 -2.192480 -6.469440 -0.000000 -171.998000 -13.062600 -0.605043 39.081100 -0.000007 -0.000012 -0.186333 0.288754 32.834500 40.985400 -0.000006 -0.000013 -1.090600 5.628250 -68.057700 11.754300 -0.000000 0.000003 -0.000178 -0.001680 -16.641100 -2.192510 6.469440 -0.000001 173.560000 24.406800 -178.173000 -39.081100 -0.002282 -0.040193 -0.208199 0.337209 32.096000 -40.985400 0.000008 0.000006 4.901920 14.212800 -69.890100 -11.754300 -0.000006 -0.000006 -0.002615 -0.036169 -18.043900
0.000000 0.000000 0.000000 0.000000 0.000000 -0.000000 -2.409460 90.590200 -3.550480 89.089200 -0.886173 13.454400 15.735700 0.000005 -0.000001 89.233400 76.006200 -88.984400 8.984550 -0.406207 -0.000000 20.220100 -0.339015 0.559898 16.377300 -0.000001 -0.000001 11.198000 -4.483370 -0.221887 6.456720 -0.000001 -0.000000 -7.649190 -4.537770 1.891830 12.994200 -0.242716 4.980390 -90.468800 1.819960 -75.552100 5.348090 -0.000007 -0.000001 -71.372700 -17.580100 -76.882800 24.328600 0.000019 0.000005 35.071800 -7.687820 -100.788000 22.291600 -0.000001 0.000005 18.433600 5.166560 3.544270 12.994500 -0.242716 -4.980390 88.854500 9.997020 -83.429600 -5.348130 -0.000001 -0.000004 -52.489800 33.554500 -26.647700 -24.328900 0.000322 -0.000009 3.079540 6.608340 -25.063400 -22.291500 -0.000108 -0.000004 19.789700 5.423140 -3.705190 -2.192480 -6.469440 -0.000000 -171.944000 -13.058000 -0.584829 39.081100 -0.000007 -0.000012 -0.192105 0.297655 32.838400 40.985400 -0.000006 -0.000013 -1.120480 5.641780 -68.068800 11.754300 -0.000000 0.000003 -0.000173 -0.001642 -16.639700 -2.192510 6.469440 -0.000001 173.593000 24.387900 -178.157000 -39.081100 -0.002282 -0.040193 -0.210564 0.340985 32.095700 -40.985400 0.000008 0.000006 4.923450 14.216700 -69.910300 -11.754300 -0.000006 -0.000006 -0.002629 -0.036326 -18.050300
